<svg width="179" height="55" viewBox="0 0 179 55" fill="none" xmlns="http://www.w3.org/2000/svg">
<path d="M172.171 54.0433H6.93373C3.2324 54.0433 0.324219 50.9907 0.324219 47.4073V7.59153C0.324219 3.87539 3.36459 0.955566 6.93373 0.955566H172.171C175.873 0.955566 178.781 4.00811 178.781 7.59153V47.4073C178.781 50.9907 175.873 54.0433 172.171 54.0433Z" fill="black"/>
<path d="M172.171 2.01732C175.212 2.01732 177.723 4.53899 177.723 7.59153V47.4073C177.723 50.4599 175.212 52.9815 172.171 52.9815H6.93373C3.89335 52.9815 1.38174 50.4599 1.38174 47.4073V7.59153C1.38174 4.53899 3.89335 2.01732 6.93373 2.01732H172.171ZM172.171 0.955566H6.93373C3.2324 0.955566 0.324219 4.00811 0.324219 7.59153V47.4073C0.324219 51.1235 3.36459 54.0433 6.93373 54.0433H172.171C175.873 54.0433 178.781 50.9907 178.781 47.4073V7.59153C178.781 4.00811 175.873 0.955566 172.171 0.955566Z" fill="#A6A6A6"/>
<path d="M90.3456 29.8882C87.1731 29.8882 84.6615 32.2771 84.6615 35.5951C84.6615 38.7804 87.1731 41.3021 90.3456 41.3021C93.5182 41.3021 96.0298 38.9131 96.0298 35.5951C96.0298 32.1444 93.5182 29.8882 90.3456 29.8882ZM90.3456 38.9131C88.6272 38.9131 87.1731 37.4532 87.1731 35.4624C87.1731 33.4716 88.6272 32.0117 90.3456 32.0117C92.0641 32.0117 93.5182 33.3389 93.5182 35.4624C93.5182 37.4532 92.0641 38.9131 90.3456 38.9131ZM78.052 29.8882C74.8794 29.8882 72.3678 32.2771 72.3678 35.5951C72.3678 38.7804 74.8794 41.3021 78.052 41.3021C81.2245 41.3021 83.7361 38.9131 83.7361 35.5951C83.7361 32.1444 81.2245 29.8882 78.052 29.8882ZM78.052 38.9131C76.3335 38.9131 74.8794 37.4532 74.8794 35.4624C74.8794 33.4716 76.3335 32.0117 78.052 32.0117C79.7704 32.0117 81.2245 33.3389 81.2245 35.4624C81.2245 37.4532 79.7704 38.9131 78.052 38.9131ZM63.3789 31.6136V34.0025H69.063C68.9308 35.3297 68.4021 36.3915 67.7411 37.055C66.948 37.8514 65.6261 38.7804 63.3789 38.7804C59.8097 38.7804 57.1659 35.9933 57.1659 32.4099C57.1659 28.8264 59.9419 26.0393 63.3789 26.0393C65.2295 26.0393 66.6836 26.8357 67.7411 27.7647L69.4596 26.0393C68.0055 24.7121 66.1548 23.6504 63.511 23.6504C58.7522 23.6504 54.6543 27.632 54.6543 32.4099C54.6543 37.1878 58.7522 41.1693 63.511 41.1693C66.1548 41.1693 68.0055 40.373 69.5918 38.6477C71.1781 37.055 71.7068 34.7988 71.7068 33.0735C71.7068 32.5426 71.7068 32.0117 71.5746 31.6136H63.3789V31.6136ZM123.393 33.4716C122.864 32.1444 121.543 29.8882 118.634 29.8882C115.726 29.8882 113.347 32.1444 113.347 35.5951C113.347 38.7804 115.726 41.3021 118.899 41.3021C121.41 41.3021 122.997 39.7094 123.525 38.7804L121.675 37.4532C121.014 38.3822 120.221 39.0458 118.899 39.0458C117.577 39.0458 116.784 38.515 116.123 37.3205L123.658 34.1352L123.393 33.4716ZM115.726 35.3297C115.726 33.2062 117.445 32.0117 118.634 32.0117C119.56 32.0117 120.485 32.5426 120.749 33.2062L115.726 35.3297ZM109.513 40.7712H112.025V24.1813H109.513V40.7712ZM105.548 31.0827C104.887 30.4191 103.829 29.7555 102.507 29.7555C99.7312 29.7555 97.0873 32.2771 97.0873 35.4624C97.0873 38.6477 99.599 41.0366 102.507 41.0366C103.829 41.0366 104.887 40.373 105.415 39.7094H105.548V40.5057C105.548 42.6293 104.358 43.8237 102.507 43.8237C101.053 43.8237 99.9955 42.762 99.7311 41.8329L97.6161 42.762C98.2771 44.2219 99.8633 46.08 102.639 46.08C105.548 46.08 107.927 44.3546 107.927 40.2403V30.1536H105.548V31.0827V31.0827ZM102.639 38.9131C100.921 38.9131 99.4668 37.4532 99.4668 35.4624C99.4668 33.4716 100.921 32.0117 102.639 32.0117C104.358 32.0117 105.68 33.4716 105.68 35.4624C105.68 37.4532 104.358 38.9131 102.639 38.9131ZM134.894 24.1813H128.945V40.7712H131.457V34.5334H134.894C137.67 34.5334 140.314 32.5426 140.314 29.3573C140.314 26.1721 137.67 24.1813 134.894 24.1813ZM135.026 32.1444H131.457V26.4375H135.026C136.877 26.4375 137.934 28.0301 137.934 29.2246C137.802 30.6845 136.744 32.1444 135.026 32.1444ZM150.228 29.7555C148.377 29.7555 146.526 30.5518 145.866 32.2771L148.113 33.2062C148.642 32.2771 149.435 32.0117 150.36 32.0117C151.682 32.0117 152.872 32.808 153.004 34.1352V34.2679C152.607 34.0025 151.55 33.6043 150.492 33.6043C148.113 33.6043 145.733 34.9315 145.733 37.3205C145.733 39.5767 147.716 41.0366 149.831 41.0366C151.55 41.0366 152.343 40.2403 153.004 39.444H153.136V40.7712H155.515V34.4007C155.251 31.4808 153.004 29.7555 150.228 29.7555ZM149.963 38.9131C149.17 38.9131 147.981 38.515 147.981 37.4532C147.981 36.126 149.435 35.7279 150.624 35.7279C151.682 35.7279 152.211 35.9933 152.872 36.2587C152.607 37.8514 151.285 38.9131 149.963 38.9131ZM163.843 30.1536L161.067 37.3205H160.935L158.027 30.1536H155.383L159.745 40.2403L157.234 45.8145H159.745L166.487 30.1536H163.843ZM141.635 40.7712H144.147V24.1813H141.635V40.7712Z" fill="white"/>
<path d="M14.0721 10.9097C13.6755 11.3078 13.4111 11.9714 13.4111 12.7677V42.0987C13.4111 42.895 13.6755 43.5586 14.0721 43.9568L14.2043 44.0895L30.5959 27.6323V27.4996V27.3669L14.0721 10.9097Z" fill="url(#paint0_linear_45_3652)"/>
<path d="M36.0157 33.2069L30.5959 27.7654V27.5V27.3673L36.0157 21.9258L36.1479 22.0585L42.6252 25.7746C44.4759 26.8364 44.4759 28.5617 42.6252 29.6235L36.0157 33.2069Z" fill="url(#paint1_linear_45_3652)"/>
<path d="M36.1478 33.0737L30.5958 27.4995L14.072 44.0894C14.733 44.753 15.6583 44.753 16.848 44.2221L36.1478 33.0737Z" fill="url(#paint2_linear_45_3652)"/>
<path d="M36.1478 21.9256L16.848 10.9099C15.6583 10.2463 14.733 10.379 14.072 11.0426L30.5958 27.4998L36.1478 21.9256Z" fill="url(#paint3_linear_45_3652)"/>
<path opacity="0.2" d="M36.0158 32.9414L16.8483 43.8244C15.7907 44.488 14.8654 44.3553 14.2045 43.8244L14.0723 43.9571L14.2045 44.0898C14.8654 44.6207 15.7907 44.7534 16.8483 44.0898L36.0158 32.9414Z" fill="black"/>
<path opacity="0.12" d="M14.0722 43.8244C13.6756 43.4262 13.5435 42.7626 13.5435 41.9663V42.099C13.5435 42.8953 13.8078 43.5589 14.2044 43.9571V43.8244H14.0722Z" fill="black"/>
<path opacity="0.12" d="M42.6251 29.2249L36.0156 32.941L36.1478 33.0737L42.6251 29.3576C43.5505 28.8267 43.947 28.1631 43.947 27.4995C43.947 28.1631 43.4183 28.694 42.6251 29.2249Z" fill="black"/>
<path opacity="0.25" d="M16.8482 11.0426L42.6253 25.7745C43.4184 26.3053 43.9472 26.8362 43.9472 27.4998C43.9472 26.8362 43.5506 26.1726 42.6253 25.6418L16.8482 10.9099C14.9975 9.84815 13.5435 10.7772 13.5435 12.9007V13.0334C13.5435 10.9099 14.9975 9.98087 16.8482 11.0426Z" fill="white"/>
<path d="M172.172 2.01732C175.212 2.01732 177.724 4.53899 177.724 7.59153V47.4073C177.724 50.4599 175.212 52.9815 172.172 52.9815H6.93397C3.8936 52.9815 1.38198 50.4599 1.38198 47.4073V7.59153C1.38198 4.53899 3.8936 2.01732 6.93397 2.01732H172.172ZM172.172 0.955566H6.93397C3.23265 0.955566 0.324463 4.00811 0.324463 7.59153V47.4073C0.324463 51.1235 3.36484 54.0433 6.93397 54.0433H172.172C175.873 54.0433 178.781 50.9907 178.781 47.4073V7.59153C178.781 4.00811 175.873 0.955566 172.172 0.955566Z" fill="#A6A6A6"/>
<path d="M55.9764 19.9346H55.051V17.2802H55.8442C56.5051 16.7493 56.9017 15.6876 56.9017 14.2277V10.2461H62.1893V17.2802H63.1146V19.9346H62.1893V18.2093H56.1085V19.9346H55.9764ZM57.827 14.2277C57.827 15.4221 57.5626 16.4839 57.0339 17.2802H60.9996V11.3078H57.6948V14.2277H57.827Z" fill="white" stroke="white" stroke-width="0.2" stroke-miterlimit="10"/>
<path d="M70.9138 17.1474C70.1206 17.9437 69.1953 18.3419 68.0056 18.3419C66.8159 18.3419 65.8906 17.9437 65.0974 17.1474C64.3043 16.3511 63.9077 15.4221 63.9077 14.2276C63.9077 13.0331 64.3043 12.1041 65.0974 11.3078C65.8906 10.5114 66.8159 10.1133 68.0056 10.1133C69.1953 10.1133 70.1206 10.5114 70.9138 11.3078C71.7069 12.1041 72.1035 13.0331 72.1035 14.2276C72.1035 15.4221 71.7069 16.3511 70.9138 17.1474ZM65.8906 16.4838C66.4193 17.0147 67.2125 17.4128 68.0056 17.4128C68.7987 17.4128 69.5919 17.1474 70.1206 16.4838C70.6494 15.9529 71.046 15.1566 71.046 14.2276C71.046 13.2985 70.7816 12.5022 70.1206 11.9714C69.5919 11.4405 68.7987 11.0423 68.0056 11.0423C67.2125 11.0423 66.4193 11.3078 65.8906 11.9714C65.3618 12.5022 64.9652 13.2985 64.9652 14.2276C64.9652 15.1566 65.2296 15.9529 65.8906 16.4838Z" fill="white" stroke="white" stroke-width="0.2" stroke-miterlimit="10"/>
<path d="M77.259 18.3419C76.0693 18.3419 75.144 17.9437 74.3508 17.1474C73.5577 16.3511 73.1611 15.4221 73.1611 14.2276C73.1611 13.0331 73.5577 12.1041 74.3508 11.3078C75.144 10.5114 76.0693 10.1133 77.259 10.1133C78.4487 10.1133 79.3741 10.5114 80.1672 11.4405L79.5063 12.1041C78.9775 11.4405 78.1844 11.0423 77.259 11.0423C76.3337 11.0423 75.6727 11.3078 75.0118 11.9714C74.3508 12.5022 74.0865 13.2985 74.0865 14.2276C74.0865 15.1566 74.3508 15.9529 75.0118 16.4838C75.5406 17.0147 76.3337 17.4128 77.259 17.4128C78.1844 17.4128 78.9775 17.0147 79.6384 16.2184L80.2994 16.882C79.9028 17.2801 79.5063 17.6783 78.9775 17.9437C78.4487 18.2092 77.92 18.3419 77.259 18.3419Z" fill="white" stroke="white" stroke-width="0.2" stroke-miterlimit="10"/>
<path d="M84.5294 18.2092H83.4718V11.1751H81.2246V10.2461H86.6444V11.1751H84.3972V18.2092H84.5294Z" fill="white" stroke="white" stroke-width="0.2" stroke-miterlimit="10"/>
<path d="M93.6506 10.2461L90.6102 17.0148C90.2136 17.9438 89.5527 18.4747 88.7595 18.4747C88.4951 18.4747 88.2308 18.4747 87.9664 18.342L88.2307 17.4129C88.3629 17.5457 88.6273 17.5457 88.7595 17.5457C89.0239 17.5457 89.1561 17.5457 89.2883 17.4129C89.4205 17.2802 89.5526 17.1475 89.6848 16.8821L89.9492 16.2185L87.3054 10.3788H88.4951L90.478 14.8913L92.3286 10.3788H93.6506V10.2461Z" fill="white" stroke="white" stroke-width="0.2" stroke-miterlimit="10"/>
<path d="M94.8403 18.2092V10.2461H100.525V18.2092H99.467V11.1751H95.7657V18.2092H94.8403Z" fill="white" stroke="white" stroke-width="0.2" stroke-miterlimit="10"/>
<path d="M102.375 18.2092V10.2461H103.433V13.6968H107.398V10.2461H108.456V18.2092H107.398V14.6258H103.433V18.2092H102.375Z" fill="white" stroke="white" stroke-width="0.2" stroke-miterlimit="10"/>
<path d="M116.784 17.1474C115.991 17.9437 115.065 18.3419 113.876 18.3419C112.686 18.3419 111.761 17.9437 110.968 17.1474C110.174 16.3511 109.778 15.4221 109.778 14.2276C109.778 13.0331 110.174 12.1041 110.968 11.3078C111.761 10.5114 112.686 10.1133 113.876 10.1133C115.065 10.1133 115.991 10.5114 116.784 11.3078C117.577 12.1041 117.974 13.0331 117.974 14.2276C117.841 15.4221 117.445 16.3511 116.784 17.1474ZM111.628 16.4838C112.157 17.0147 112.95 17.4128 113.744 17.4128C114.537 17.4128 115.33 17.1474 115.859 16.4838C116.387 15.9529 116.784 15.1566 116.784 14.2276C116.784 13.2985 116.52 12.5022 115.859 11.9714C115.33 11.4405 114.537 11.0423 113.744 11.0423C112.95 11.0423 112.157 11.3078 111.628 11.9714C111.1 12.5022 110.703 13.2985 110.703 14.2276C110.703 15.1566 111.1 15.9529 111.628 16.4838Z" fill="white" stroke="white" stroke-width="0.2" stroke-miterlimit="10"/>
<path d="M122.072 18.2092V10.2461H124.98C125.641 10.2461 126.169 10.5115 126.566 10.9097C126.963 11.3078 127.227 11.8387 127.227 12.5023C127.227 12.9005 127.095 13.1659 126.963 13.5641C126.83 13.8295 126.566 14.095 126.169 14.2277C126.566 14.3604 126.83 14.6258 127.095 14.8913C127.359 15.1567 127.491 15.5549 127.491 16.0857C127.491 16.7493 127.227 17.2802 126.83 17.6784C126.302 18.0765 125.773 18.342 125.112 18.342H122.072V18.2092ZM123.129 13.6968H124.98C125.376 13.6968 125.641 13.5641 125.905 13.2986C126.169 13.0332 126.302 12.7678 126.302 12.5023C126.302 12.2369 126.169 11.9714 125.905 11.706C125.641 11.4406 125.376 11.3078 124.98 11.3078H123.129V13.6968ZM123.129 17.2802H125.244C125.641 17.2802 125.905 17.1475 126.169 16.8821C126.434 16.6166 126.566 16.3512 126.566 15.953C126.566 15.6876 126.434 15.2894 126.169 15.024C125.905 14.7585 125.641 14.6258 125.244 14.6258H123.261V17.2802H123.129Z" fill="white" stroke="white" stroke-width="0.2" stroke-miterlimit="10"/>
<defs>
<linearGradient id="paint0_linear_45_3652" x1="29.1414" y1="12.5152" x2="6.86806" y2="34.6997" gradientUnits="userSpaceOnUse">
<stop stop-color="#00A0FF"/>
<stop offset="0.00657445" stop-color="#00A1FF"/>
<stop offset="0.2601" stop-color="#00BEFF"/>
<stop offset="0.5122" stop-color="#00D2FF"/>
<stop offset="0.7604" stop-color="#00DFFF"/>
<stop offset="1" stop-color="#00E3FF"/>
</linearGradient>
<linearGradient id="paint1_linear_45_3652" x1="45.0501" y1="27.5018" x2="13.0642" y2="27.5018" gradientUnits="userSpaceOnUse">
<stop stop-color="#FFE000"/>
<stop offset="0.4087" stop-color="#FFBD00"/>
<stop offset="0.7754" stop-color="#FFA500"/>
<stop offset="1" stop-color="#FF9C00"/>
</linearGradient>
<linearGradient id="paint2_linear_45_3652" x1="33.1431" y1="30.5469" x2="2.93868" y2="60.6309" gradientUnits="userSpaceOnUse">
<stop stop-color="#FF3A44"/>
<stop offset="1" stop-color="#C31162"/>
</linearGradient>
<linearGradient id="paint3_linear_45_3652" x1="9.97056" y1="1.18982" x2="23.4582" y2="14.6235" gradientUnits="userSpaceOnUse">
<stop stop-color="#32A071"/>
<stop offset="0.0685" stop-color="#2DA771"/>
<stop offset="0.4762" stop-color="#15CF74"/>
<stop offset="0.8009" stop-color="#06E775"/>
<stop offset="1" stop-color="#00F076"/>
</linearGradient>
</defs>
</svg>
